<?xml version="1.0" encoding="UTF-8"?> <svg xmlns="http://www.w3.org/2000/svg" id="Lager_1" data-name="Lager 1" viewBox="0 0 115.33 28.67"><defs><style>.cls-1{fill:#fff;}.cls-2{fill:none;stroke:#84dade;stroke-miterlimit:2;stroke-width:0.57px;}</style></defs><title>Rityta 1</title><path class="cls-1" d="M8.39,3.83h2v8.45h-2L5,7v5.32H2.9V3.83H5L8.39,9.15Z"></path><path class="cls-1" d="M17.34,12.28l-.47-1.41h-3l-.47,1.41H11.2l2.92-8.45h2.5l2.92,8.45Zm-3-3h2l-1-3Z"></path><path class="cls-1" d="M20.77,11.13a4.1,4.1,0,0,1-1.26-3.08A4.11,4.11,0,0,1,20.77,5a4.18,4.18,0,0,1,3.06-1.22,4.38,4.38,0,0,1,2.5.74,4,4,0,0,1,1.52,2.07H25.4a1.61,1.61,0,0,0-1.53-.93,2.13,2.13,0,0,0-1.66.66,2.49,2.49,0,0,0-.61,1.77,2.48,2.48,0,0,0,.61,1.76,2.13,2.13,0,0,0,1.66.66,1.61,1.61,0,0,0,1.53-.92h2.45a4,4,0,0,1-1.52,2.06,4.3,4.3,0,0,1-2.5.74A4.18,4.18,0,0,1,20.77,11.13Z"></path><path class="cls-1" d="M30.93,12.28H28.88V3.86h2.05V7.55l2.79-3.69H36.4L32.94,8.07l3.46,4.21H33.76L30.93,8.56Z"></path><path class="cls-1" d="M42.87,12.28l-.47-1.41h-3l-.47,1.41H36.73l2.93-8.45h2.49l2.92,8.45Zm-3-3h2l-1-3Z"></path><path class="cls-1" d="M8.43,24.85V16.42h5.49V18H10.49v1.81h2.57v1.56H10.49v3.5Z"></path><path class="cls-1" d="M15.51,23.7a4.14,4.14,0,0,1-1.25-3.09,4.14,4.14,0,0,1,1.25-3.09,4.26,4.26,0,0,1,3.08-1.22,4.22,4.22,0,0,1,3.06,1.22,4.17,4.17,0,0,1,1.24,3.09,4.14,4.14,0,0,1-1.25,3.09,4.43,4.43,0,0,1-6.13,0Zm4.68-1.33a2.46,2.46,0,0,0,.61-1.76,2.45,2.45,0,0,0-.61-1.76,2,2,0,0,0-1.62-.66,2.08,2.08,0,0,0-1.62.66,2.49,2.49,0,0,0-.6,1.76,2.5,2.5,0,0,0,.6,1.76,2.11,2.11,0,0,0,1.62.66A2.08,2.08,0,0,0,20.19,22.37ZM18,15.4a.92.92,0,0,1-1.26,0,.91.91,0,0,1,0-1.25A.89.89,0,1,1,18,15.4Zm2.4,0a.92.92,0,0,1-1.26,0,.91.91,0,0,1,0-1.25A.89.89,0,1,1,20.4,15.4Z"></path><path class="cls-1" d="M25.93,21.57v3.28H23.87V16.42H27.2a3.22,3.22,0,0,1,2.28.76A2.39,2.39,0,0,1,30.29,19a2.58,2.58,0,0,1-.44,1.43,2.44,2.44,0,0,1-1.45,1l2.06,3.44h-2.4l-1.89-3.28Zm0-3.59v2H27.2a.95.95,0,0,0,1-1,1,1,0,0,0-.28-.74A1,1,0,0,0,27.2,18Z"></path><path class="cls-1" d="M36.66,16.4V18h-3v1.81H36.3v1.56H33.61v2h3v1.57h-5.1V16.4Z"></path><path class="cls-1" d="M37.85,18V16.42h6.64V18h-2.3v6.87h-2V18Z"></path><path class="cls-1" d="M50.07,24.85l-.47-1.42h-3l-.47,1.42H43.92l2.93-8.45h2.5l2.91,8.45Zm-3-3h2l-1-3Z"></path><path class="cls-1" d="M53.54,23.7a4.11,4.11,0,0,1-1.26-3.09,4.11,4.11,0,0,1,1.26-3.09A4.22,4.22,0,0,1,56.6,16.3a4.31,4.31,0,0,1,2.5.75,3.89,3.89,0,0,1,1.52,2.06H58.17a1.6,1.6,0,0,0-1.53-.92,2.13,2.13,0,0,0-1.67.66,2.49,2.49,0,0,0-.6,1.76,2.5,2.5,0,0,0,.6,1.76A2.12,2.12,0,0,0,56.6,23a1.9,1.9,0,0,0,1.2-.36,1.79,1.79,0,0,0,.61-1H56V20.13h4.58v1.56a4.09,4.09,0,0,1-1.26,2.15,3.76,3.76,0,0,1-1.22.78,4,4,0,0,1-1.54.3A4.22,4.22,0,0,1,53.54,23.7Z"></path><path class="cls-1" d="M66.88,24.85l-.47-1.42h-3l-.46,1.42H60.73l2.93-8.45h2.5l2.91,8.45Zm-3-3h2l-1-3Z"></path><path class="cls-1" d="M71.8,21.57v3.28h-2V16.42h3.32a3.19,3.19,0,0,1,2.28.76A2.4,2.4,0,0,1,76.17,19a2.59,2.59,0,0,1-.45,1.43,2.41,2.41,0,0,1-1.45,1l2.07,3.44H73.93L72,21.57Zm0-3.59v2h1.27a.95.95,0,0,0,1-1,1,1,0,0,0-.28-.74,1,1,0,0,0-.73-.29Z"></path><path class="cls-1" d="M76.77,18V16.42h6.65V18H81.11v6.87h-2V18Z"></path><path class="cls-1" d="M86.44,21.57v3.28h-2V16.42h3.33a3.22,3.22,0,0,1,2.28.76A2.39,2.39,0,0,1,90.81,19a2.66,2.66,0,0,1-.44,1.43,2.44,2.44,0,0,1-1.45,1L91,24.85h-2.4l-1.9-3.28Zm0-3.59v2h1.28a1,1,0,0,0,.73-.28,1,1,0,0,0,.27-.72,1,1,0,0,0-.27-.74,1,1,0,0,0-.73-.29Z"></path><path class="cls-1" d="M97.76,24.85l-.47-1.42h-3l-.47,1.42H91.62l2.92-8.45H97L100,24.85ZM95.21,15.4a.85.85,0,0,1-.63.25A.81.81,0,0,1,94,15.4a.88.88,0,0,1,0-1.25.83.83,0,0,1,.63-.26.86.86,0,0,1,.63.26.89.89,0,0,1,.25.63A.85.85,0,0,1,95.21,15.4Zm-.43,6.47h2l-1-3Zm2.83-6.47a.85.85,0,0,1-.63.25.81.81,0,0,1-.62-.25.88.88,0,0,1,0-1.25.83.83,0,0,1,.63-.26.86.86,0,0,1,.63.26.89.89,0,0,1,.25.63A.85.85,0,0,1,97.61,15.4Z"></path><path class="cls-1" d="M100.63,24.85V16.42h5.48V18h-3.43v1.81h2.57v1.56h-2.57v3.5Z"></path><path class="cls-1" d="M107,24.85V16.42h5.48V18H109v1.81h2.57v1.56H109v3.5Z"></path><path class="cls-2" d="M83.2,14.75v-2h24.45A2.39,2.39,0,0,0,110,10.39V4.31a2.39,2.39,0,0,0-2.38-2.38H66.14a2.39,2.39,0,0,0-2.38,2.38v6.08a2.39,2.39,0,0,0,2.38,2.38H77.06v2"></path><line class="cls-2" x1="67.88" y1="4.88" x2="72.19" y2="4.88"></line><line class="cls-2" x1="73.09" y1="4.88" x2="74.74" y2="4.88"></line><line class="cls-2" x1="79.14" y1="4.88" x2="85.55" y2="4.88"></line><line class="cls-2" x1="67.88" y1="6.47" x2="69.15" y2="6.47"></line><line class="cls-2" x1="85.63" y1="8.08" x2="87.97" y2="8.08"></line><line class="cls-2" x1="67.88" y1="9.65" x2="73.58" y2="9.65"></line><line class="cls-2" x1="88.1" y1="4.88" x2="92.65" y2="4.88"></line><line class="cls-2" x1="93.55" y1="4.88" x2="100.79" y2="4.88"></line><line class="cls-2" x1="101.69" y1="4.88" x2="105.48" y2="4.88"></line><line class="cls-2" x1="73.45" y1="6.44" x2="79.41" y2="6.44"></line><line class="cls-2" x1="80.16" y1="6.44" x2="87.5" y2="6.44"></line><line class="cls-2" x1="90.57" y1="6.44" x2="100.61" y2="6.44"></line><line class="cls-2" x1="101.36" y1="6.44" x2="105.48" y2="6.44"></line><line class="cls-2" x1="71.42" y1="6.47" x2="72.69" y2="6.47"></line><line class="cls-2" x1="88.26" y1="6.47" x2="89.81" y2="6.47"></line><line class="cls-2" x1="69.91" y1="6.47" x2="70.66" y2="6.47"></line><line class="cls-2" x1="74.16" y1="9.65" x2="75.43" y2="9.65"></line><line class="cls-2" x1="79.21" y1="9.65" x2="85.17" y2="9.65"></line><line class="cls-2" x1="77.35" y1="9.65" x2="78.62" y2="9.65"></line><line class="cls-2" x1="76.02" y1="9.65" x2="76.77" y2="9.65"></line><line class="cls-2" x1="97.39" y1="9.65" x2="98.14" y2="9.65"></line><line class="cls-2" x1="98.72" y1="9.65" x2="99.47" y2="9.65"></line><line class="cls-2" x1="100.55" y1="8.08" x2="101.82" y2="8.08"></line><line class="cls-2" x1="72.43" y1="8.08" x2="79.72" y2="8.08"></line><line class="cls-2" x1="90.77" y1="8.08" x2="99.78" y2="8.08"></line><line class="cls-2" x1="67.88" y1="8.08" x2="71.67" y2="8.08"></line><line class="cls-2" x1="104.1" y1="8.08" x2="105.48" y2="8.08"></line><line class="cls-2" x1="88.73" y1="8.08" x2="90" y2="8.08"></line><line class="cls-2" x1="102.58" y1="8.08" x2="103.33" y2="8.08"></line><line class="cls-2" x1="82.52" y1="8.08" x2="84.86" y2="8.08"></line><line class="cls-2" x1="88.68" y1="9.65" x2="91.02" y2="9.65"></line><line class="cls-2" x1="104.08" y1="9.65" x2="105.48" y2="9.65"></line><line class="cls-2" x1="93.46" y1="9.65" x2="96.8" y2="9.65"></line><line class="cls-2" x1="91.61" y1="9.65" x2="92.88" y2="9.65"></line><line class="cls-2" x1="85.75" y1="9.65" x2="88.1" y2="9.65"></line><line class="cls-2" x1="80.49" y1="8.08" x2="81.76" y2="8.08"></line><line class="cls-2" x1="75.64" y1="4.88" x2="78.25" y2="4.88"></line><line class="cls-2" x1="86.45" y1="4.9" x2="87.2" y2="4.9"></line><line class="cls-2" x1="100.06" y1="9.65" x2="103.49" y2="9.65"></line></svg> 